<?xml version="1.0" encoding="UTF-8" standalone="no"?>
<svg height="16px" viewBox="0 0 16 16" width="16px" xmlns="http://www.w3.org/2000/svg" sodipodi:docname="com.github.ArianeTeam.Ariane-symbolic.svg" inkscape:version="1.2.1 (9c6d41e410, 2022-07-14)" xmlns:inkscape="http://www.inkscape.org/namespaces/inkscape" xmlns:sodipodi="http://sodipodi.sourceforge.net/DTD/sodipodi-0.dtd" xmlns:svg="http://www.w3.org/2000/svg">
    <sodipodi:namedview pagecolor="#ffffff" bordercolor="#000000" borderopacity="0.25" inkscape:showpageshadow="2" inkscape:pageopacity="0.0" inkscape:pagecheckerboard="0" inkscape:deskcolor="#d1d1d1" showgrid="false" inkscape:zoom="12.464218" inkscape:cx="15.083176" inkscape:cy="6.6590619" inkscape:window-width="1280" inkscape:window-height="731" inkscape:window-x="0" inkscape:window-y="0" inkscape:window-maximized="1" inkscape:current-layer="svg13"/>
    <path d="m 1 0 c -0.25561885 0 -0.51116287 0.09710037 -0.70703125 0.29296875 c -0.39173677 0.39173677 -0.39173677 1.02427885 0 1.41601565 l 2.00000005 1.9980468 c -0.1868008 0.3914739 -0.2929688 0.8293223 -0.2929688 1.2929688 v 8 c 0 1.660158 1.3398517 3 3 3 h 6 c 1.660158 0 3 -1.339842 3 -3 v -8 v -3 c 0 -1.10799889 -0.892001 -2 -2 -2 h -2 c -1.1079989 0 -2 0.89200111 -2 2 h -3 c -0.4636548 0 -0.9014939 0.1061653 -1.2929688 0.2929688 l -1.9980468 -2.00000005 c -0.1958684 -0.19586838 -0.4533656 -0.29296875 -0.7089844 -0.29296875 z m 4 4 h 5 h 1 c 0.554689 0 1 0.4453206 1 1 v 8 c 0 0.554689 -0.445321 1 -1 1 h -6 c -0.5546894 0 -1 -0.445321 -1 -1 v -8 c 0 -0.5546694 0.4453106 -1 1 -1 z" fill="#2e3335"/>
</svg>
