<?xml version="1.0" encoding="UTF-8"?>
<svg height="128px" viewBox="0 0 128 128" width="128px" xmlns="http://www.w3.org/2000/svg" xmlns:xlink="http://www.w3.org/1999/xlink">
    <linearGradient id="a" gradientTransform="matrix(0.866025 -0.5 0.5 0.866025 0.572261 -171.033383)" gradientUnits="userSpaceOnUse" x1="-82.608932" x2="-62.608932" y1="185.617828" y2="185.617828">
        <stop offset="0" stop-color="#241f31"/>
        <stop offset="0.5" stop-color="#3d3846"/>
        <stop offset="1" stop-color="#241f31"/>
    </linearGradient>
    <linearGradient id="b" gradientTransform="matrix(0.196428 0 0 0.342105 2.597287 273.739929)" gradientUnits="userSpaceOnUse" x1="88.595886" x2="536.595886" y1="-449.394012" y2="-449.394012">
        <stop offset="0" stop-color="#a51d2d"/>
        <stop offset="0.0500001" stop-color="#ed333b"/>
        <stop offset="0.099807" stop-color="#c01c28"/>
        <stop offset="0.900001" stop-color="#c01c28"/>
        <stop offset="0.950001" stop-color="#ed333b"/>
        <stop offset="1" stop-color="#a51d2d"/>
    </linearGradient>
    <linearGradient id="c" gradientTransform="matrix(0.866025 -0.5 0.4 0.69282 19.434048 -138.363817)" gradientUnits="userSpaceOnUse" x1="-80.608932" x2="-64.608932" y1="193.617828" y2="193.617828">
        <stop offset="0" stop-color="#c01c28"/>
        <stop offset="0.5" stop-color="#ed333b"/>
        <stop offset="1" stop-color="#c01c28"/>
    </linearGradient>
    <linearGradient id="d" gradientUnits="userSpaceOnUse">
        <stop offset="0" stop-color="#c0bfbc"/>
        <stop offset="0.5" stop-color="#deddda"/>
        <stop offset="1" stop-color="#c0bfbc"/>
    </linearGradient>
    <linearGradient id="e" gradientTransform="matrix(0.5 -0.866025 0.866025 0.5 -140.571103 -101.727876)" x1="-24" x2="-16" xlink:href="#d" y1="200" y2="200"/>
    <linearGradient id="f" gradientTransform="matrix(0.866025 -0.5 0.5 0.866025 -55.679492 -163.246424)" x1="-24" x2="-16" xlink:href="#d" y1="200" y2="200"/>
    <clipPath id="g">
        <rect height="128" width="128"/>
    </clipPath>
    <clipPath id="h">
        <rect height="128" width="128"/>
    </clipPath>
    <filter id="i" height="100%" width="100%" x="0%" y="0%">
        <feColorMatrix in="SourceGraphic" type="matrix" values="0 0 0 0 1 0 0 0 0 1 0 0 0 0 1 0 0 0 1 0"/>
    </filter>
    <mask id="j">
        <g clip-path="url(#h)" filter="url(#i)">
            <g clip-path="url(#g)">
                <path d="m 22.070312 27.421875 l 13.859376 -8 c 0.957031 -0.550781 2.179687 -0.222656 2.730468 0.734375 l 1 1.730469 c 0.550782 0.957031 0.226563 2.179687 -0.730468 2.730469 l -13.859376 8 c -0.957031 0.554687 -2.179687 0.226562 -2.730468 -0.730469 l -1 -1.730469 c -0.550782 -0.957031 -0.226563 -2.179688 0.730468 -2.734375 z m 0 0" fill="url(#a)"/>
                <path d="m 28 44 h 72 c 4.417969 0 8 3.582031 8 8 v 60 c 0 4.417969 -3.582031 8 -8 8 h -72 c -4.417969 0 -8 -3.582031 -8 -8 v -60 c 0 -4.417969 3.582031 -8 8 -8 z m 0 0" fill="url(#b)"/>
                <path d="m 46.199219 32.972656 l 18.386719 -18.386718 c 0.777343 -0.777344 2.046874 -0.777344 2.828124 0 c 0.78125 0.78125 0.78125 2.050781 0 2.832031 l -18.386718 18.382812 c -0.78125 0.78125 -2.046875 0.78125 -2.828125 0 s -0.78125 -2.046875 0 -2.828125 z m 0 0" fill="#a51d2d"/>
                <path d="m 66 14 h 26 c 1.105469 0 2 0.894531 2 2 s -0.894531 2 -2 2 h -26 c -1.105469 0 -2 -0.894531 -2 -2 s 0.894531 -2 2 -2 z m 0 0" fill="#a51d2d"/>
                <path d="m 46.199219 30.972656 l 18.386719 -18.386718 c 0.777343 -0.777344 2.046874 -0.777344 2.828124 0 c 0.78125 0.78125 0.78125 2.050781 0 2.832031 l -18.386718 18.382812 c -0.78125 0.78125 -2.046875 0.78125 -2.828125 0 s -0.78125 -2.046875 0 -2.828125 z m 0 0" fill="#c01c28"/>
                <path d="m 25.070312 32.617188 l 13.859376 -8 l 4 6.929687 l -13.859376 8 z m 0 0" fill="url(#c)"/>
                <path d="m 20 40.167969 v 59.832031 c 0 4.433594 3.566406 8 8 8 h 72 c 4.433594 0 8 -3.566406 8 -8 v -68.058594 c 0 -4.433594 -3.566406 -7.941406 -8 -7.941406 h -52 z m 0 0" fill="#e01b24"/>
                <path d="m 38 40 c -0.507812 0 -1.019531 0.195312 -1.410156 0.585938 c -0.785156 0.785156 -0.785156 2.046874 0 2.832031 l 12.519531 12.519531 c -0.699219 1.191406 -1.109375 2.574219 -1.109375 4.0625 v 20 c 0 1.488281 0.410156 2.871094 1.109375 4.0625 l -12.519531 12.519531 c -0.785156 0.785157 -0.785156 2.046875 0 2.832031 c 0.78125 0.78125 2.042968 0.78125 2.828125 0 l 12.519531 -12.527343 c 1.191406 0.703125 2.574219 1.113281 4.0625 1.113281 h 16 c 1.488281 0 2.871094 -0.410156 4.0625 -1.109375 l 12.519531 12.523437 c 0.785157 0.78125 2.046875 0.78125 2.828125 0 c 0.785156 -0.785156 0.785156 -2.046874 0 -2.832031 l -12.519531 -12.519531 c 0.699219 -1.191406 1.109375 -2.578125 1.109375 -4.0625 v -20 c 0 -1.484375 -0.410156 -2.871094 -1.109375 -4.0625 l 12.519531 -12.519531 c 0.785156 -0.785157 0.785156 -2.046875 0 -2.832031 c -0.78125 -0.78125 -2.042968 -0.78125 -2.828125 0 l -12.519531 12.523437 c -1.191406 -0.699219 -2.574219 -1.109375 -4.0625 -1.109375 h -16 c -1.488281 0 -2.871094 0.410156 -4.0625 1.113281 l -12.519531 -12.527343 c -0.394531 -0.390626 -0.90625 -0.585938 -1.417969 -0.585938 z m 18 16 h 16 c 2.214844 0 4 1.785156 4 4 v 20 c 0 2.214844 -1.785156 4 -4 4 h -16 c -2.214844 0 -4 -1.785156 -4 -4 v -20 c 0 -2.214844 1.785156 -4 4 -4 z m 0 0" fill="#c01c28"/>
                <path d="m 66 12 h 26 c 1.105469 0 2 0.894531 2 2 s -0.894531 2 -2 2 h -26 c -1.105469 0 -2 -0.894531 -2 -2 s 0.894531 -2 2 -2 z m 0 0" fill="#c01c28"/>
                <path d="m 92 12 c -2.214844 0 -4 1.785156 -4 4 c 0 8 -8 8 -8 8 h 8 v 8 c 0 2.214844 1.785156 4 4 4 h 12 c 2.214844 0 4 -1.785156 4 -4 v -16 c 0 -2.214844 -1.785156 -4 -4 -4 z m 0 0" fill="#e01b24"/>
                <path d="m 38 40 c -0.507812 0 -1.019531 0.195312 -1.410156 0.585938 c -0.660156 0.660156 -0.757813 1.648437 -0.3125 2.414062 c 0.085937 -0.144531 0.183594 -0.285156 0.3125 -0.414062 c 0.390625 -0.390626 0.902344 -0.585938 1.410156 -0.585938 c 0.511719 0 1.023438 0.195312 1.417969 0.585938 l 12.519531 12.527343 c 1.191406 -0.703125 2.574219 -1.113281 4.0625 -1.113281 h 16 c 1.488281 0 2.871094 0.410156 4.0625 1.109375 l 12.519531 -12.523437 c 0.785157 -0.78125 2.046875 -0.78125 2.828125 0 c 0.128906 0.128906 0.226563 0.269531 0.3125 0.414062 c 0.445313 -0.765625 0.347656 -1.753906 -0.3125 -2.414062 c -0.78125 -0.78125 -2.042968 -0.78125 -2.828125 0 l -12.519531 12.523437 c -1.191406 -0.699219 -2.574219 -1.109375 -4.0625 -1.109375 h -16 c -1.488281 0 -2.871094 0.410156 -4.0625 1.113281 l -12.519531 -12.527343 c -0.394531 -0.390626 -0.90625 -0.585938 -1.417969 -0.585938 z m 10.484375 17.3125 c -0.304687 0.839844 -0.484375 1.738281 -0.484375 2.6875 v 2 c 0 -1.488281 0.410156 -2.871094 1.109375 -4.0625 z m 31.03125 0 l -0.625 0.625 c 0.699219 1.191406 1.109375 2.578125 1.109375 4.0625 v -2 c 0 -0.945312 -0.183594 -1.84375 -0.484375 -2.6875 z m -27.515625 22.6875 v 2 c 0 2.214844 1.785156 4 4 4 h 16 c 2.214844 0 4 -1.785156 4 -4 v -2 c 0 2.214844 -1.785156 4 -4 4 h -16 c -2.214844 0 -4 -1.785156 -4 -4 z m 27.515625 4.6875 c -0.171875 0.476562 -0.371094 0.941406 -0.625 1.375 l 12.519531 12.519531 c 0.128906 0.128907 0.226563 0.269531 0.3125 0.417969 c 0.445313 -0.769531 0.347656 -1.757812 -0.3125 -2.417969 z m -31.03125 0 l -11.894531 11.894531 c -0.660156 0.660157 -0.757813 1.648438 -0.3125 2.417969 c 0.085937 -0.148438 0.183594 -0.289062 0.3125 -0.417969 l 12.519531 -12.519531 c -0.253906 -0.429688 -0.457031 -0.894531 -0.625 -1.375 z m 0 0" fill="#a51d2d"/>
                <path d="m 8.277344 8.457031 l 1 -1.730469 l 18.320312 8.269532 l -3 5.195312 z m 0 0" fill="url(#e)"/>
                <path d="m 22.402344 17.996094 l 5.195312 -3 l 4.867188 6.425781 l -6.929688 4 z m 0 0" fill="url(#f)"/>
            </g>
        </g>
    </mask>
    <mask id="k">
        <g filter="url(#i)">
            <rect fill-opacity="0.8" height="128" width="128"/>
        </g>
    </mask>
    <linearGradient id="l" gradientTransform="matrix(0 0.37 -0.98462 0 295.38501 -30.360001)" gradientUnits="userSpaceOnUse" x1="300" x2="428" y1="235" y2="235">
        <stop offset="0" stop-color="#f9f06b"/>
        <stop offset="1" stop-color="#f5c211"/>
    </linearGradient>
    <clipPath id="m">
        <rect height="128" width="128"/>
    </clipPath>
    <clipPath id="n">
        <rect height="128" width="128"/>
    </clipPath>
    <path d="m 22.070312 27.421875 l 13.859376 -8 c 0.957031 -0.550781 2.179687 -0.222656 2.730468 0.734375 l 1 1.730469 c 0.550782 0.957031 0.226563 2.179687 -0.730468 2.730469 l -13.859376 8 c -0.957031 0.554687 -2.179687 0.226562 -2.730468 -0.730469 l -1 -1.730469 c -0.550782 -0.957031 -0.226563 -2.179688 0.730468 -2.734375 z m 0 0" fill="url(#a)"/>
    <path d="m 28 44 h 72 c 4.417969 0 8 3.582031 8 8 v 60 c 0 4.417969 -3.582031 8 -8 8 h -72 c -4.417969 0 -8 -3.582031 -8 -8 v -60 c 0 -4.417969 3.582031 -8 8 -8 z m 0 0" fill="url(#b)"/>
    <path d="m 46.199219 32.972656 l 18.386719 -18.386718 c 0.777343 -0.777344 2.046874 -0.777344 2.828124 0 c 0.78125 0.78125 0.78125 2.050781 0 2.832031 l -18.386718 18.382812 c -0.78125 0.78125 -2.046875 0.78125 -2.828125 0 s -0.78125 -2.046875 0 -2.828125 z m 0 0" fill="#a51d2d"/>
    <path d="m 66 14 h 26 c 1.105469 0 2 0.894531 2 2 s -0.894531 2 -2 2 h -26 c -1.105469 0 -2 -0.894531 -2 -2 s 0.894531 -2 2 -2 z m 0 0" fill="#a51d2d"/>
    <path d="m 46.199219 30.972656 l 18.386719 -18.386718 c 0.777343 -0.777344 2.046874 -0.777344 2.828124 0 c 0.78125 0.78125 0.78125 2.050781 0 2.832031 l -18.386718 18.382812 c -0.78125 0.78125 -2.046875 0.78125 -2.828125 0 s -0.78125 -2.046875 0 -2.828125 z m 0 0" fill="#c01c28"/>
    <path d="m 25.070312 32.617188 l 13.859376 -8 l 4 6.929687 l -13.859376 8 z m 0 0" fill="url(#c)"/>
    <path d="m 20 40.167969 v 59.832031 c 0 4.433594 3.566406 8 8 8 h 72 c 4.433594 0 8 -3.566406 8 -8 v -68.058594 c 0 -4.433594 -3.566406 -7.941406 -8 -7.941406 h -52 z m 0 0" fill="#e01b24"/>
    <path d="m 38 40 c -0.507812 0 -1.019531 0.195312 -1.410156 0.585938 c -0.785156 0.785156 -0.785156 2.046874 0 2.832031 l 12.519531 12.519531 c -0.699219 1.191406 -1.109375 2.574219 -1.109375 4.0625 v 20 c 0 1.488281 0.410156 2.871094 1.109375 4.0625 l -12.519531 12.519531 c -0.785156 0.785157 -0.785156 2.046875 0 2.832031 c 0.78125 0.78125 2.042968 0.78125 2.828125 0 l 12.519531 -12.527343 c 1.191406 0.703125 2.574219 1.113281 4.0625 1.113281 h 16 c 1.488281 0 2.871094 -0.410156 4.0625 -1.109375 l 12.519531 12.523437 c 0.785157 0.78125 2.046875 0.78125 2.828125 0 c 0.785156 -0.785156 0.785156 -2.046874 0 -2.832031 l -12.519531 -12.519531 c 0.699219 -1.191406 1.109375 -2.578125 1.109375 -4.0625 v -20 c 0 -1.484375 -0.410156 -2.871094 -1.109375 -4.0625 l 12.519531 -12.519531 c 0.785156 -0.785157 0.785156 -2.046875 0 -2.832031 c -0.78125 -0.78125 -2.042968 -0.78125 -2.828125 0 l -12.519531 12.523437 c -1.191406 -0.699219 -2.574219 -1.109375 -4.0625 -1.109375 h -16 c -1.488281 0 -2.871094 0.410156 -4.0625 1.113281 l -12.519531 -12.527343 c -0.394531 -0.390626 -0.90625 -0.585938 -1.417969 -0.585938 z m 18 16 h 16 c 2.214844 0 4 1.785156 4 4 v 20 c 0 2.214844 -1.785156 4 -4 4 h -16 c -2.214844 0 -4 -1.785156 -4 -4 v -20 c 0 -2.214844 1.785156 -4 4 -4 z m 0 0" fill="#c01c28"/>
    <path d="m 66 12 h 26 c 1.105469 0 2 0.894531 2 2 s -0.894531 2 -2 2 h -26 c -1.105469 0 -2 -0.894531 -2 -2 s 0.894531 -2 2 -2 z m 0 0" fill="#c01c28"/>
    <path d="m 92 12 c -2.214844 0 -4 1.785156 -4 4 c 0 8 -8 8 -8 8 h 8 v 8 c 0 2.214844 1.785156 4 4 4 h 12 c 2.214844 0 4 -1.785156 4 -4 v -16 c 0 -2.214844 -1.785156 -4 -4 -4 z m 0 0" fill="#e01b24"/>
    <path d="m 38 40 c -0.507812 0 -1.019531 0.195312 -1.410156 0.585938 c -0.660156 0.660156 -0.757813 1.648437 -0.3125 2.414062 c 0.085937 -0.144531 0.183594 -0.285156 0.3125 -0.414062 c 0.390625 -0.390626 0.902344 -0.585938 1.410156 -0.585938 c 0.511719 0 1.023438 0.195312 1.417969 0.585938 l 12.519531 12.527343 c 1.191406 -0.703125 2.574219 -1.113281 4.0625 -1.113281 h 16 c 1.488281 0 2.871094 0.410156 4.0625 1.109375 l 12.519531 -12.523437 c 0.785157 -0.78125 2.046875 -0.78125 2.828125 0 c 0.128906 0.128906 0.226563 0.269531 0.3125 0.414062 c 0.445313 -0.765625 0.347656 -1.753906 -0.3125 -2.414062 c -0.78125 -0.78125 -2.042968 -0.78125 -2.828125 0 l -12.519531 12.523437 c -1.191406 -0.699219 -2.574219 -1.109375 -4.0625 -1.109375 h -16 c -1.488281 0 -2.871094 0.410156 -4.0625 1.113281 l -12.519531 -12.527343 c -0.394531 -0.390626 -0.90625 -0.585938 -1.417969 -0.585938 z m 10.484375 17.3125 c -0.304687 0.839844 -0.484375 1.738281 -0.484375 2.6875 v 2 c 0 -1.488281 0.410156 -2.871094 1.109375 -4.0625 z m 31.03125 0 l -0.625 0.625 c 0.699219 1.191406 1.109375 2.578125 1.109375 4.0625 v -2 c 0 -0.945312 -0.183594 -1.84375 -0.484375 -2.6875 z m -27.515625 22.6875 v 2 c 0 2.214844 1.785156 4 4 4 h 16 c 2.214844 0 4 -1.785156 4 -4 v -2 c 0 2.214844 -1.785156 4 -4 4 h -16 c -2.214844 0 -4 -1.785156 -4 -4 z m 27.515625 4.6875 c -0.171875 0.476562 -0.371094 0.941406 -0.625 1.375 l 12.519531 12.519531 c 0.128906 0.128907 0.226563 0.269531 0.3125 0.417969 c 0.445313 -0.769531 0.347656 -1.757812 -0.3125 -2.417969 z m -31.03125 0 l -11.894531 11.894531 c -0.660156 0.660157 -0.757813 1.648438 -0.3125 2.417969 c 0.085937 -0.148438 0.183594 -0.289062 0.3125 -0.417969 l 12.519531 -12.519531 c -0.253906 -0.429688 -0.457031 -0.894531 -0.625 -1.375 z m 0 0" fill="#a51d2d"/>
    <path d="m 8.277344 8.457031 l 1 -1.730469 l 18.320312 8.269532 l -3 5.195312 z m 0 0" fill="url(#e)"/>
    <path d="m 22.402344 17.996094 l 5.195312 -3 l 4.867188 6.425781 l -6.929688 4 z m 0 0" fill="url(#f)"/>
    <g clip-path="url(#n)" mask="url(#j)">
        <g clip-path="url(#m)" mask="url(#k)">
            <path d="m 128 80.640625 v 47.359375 h -128 v -47.359375 z m 0 0" fill="url(#l)"/>
            <path d="m 13.308594 80.640625 l 47.355468 47.359375 h 21.214844 l -47.359375 -47.359375 z m 42.421875 0 l 47.363281 47.359375 h 21.214844 l -47.363282 -47.359375 z m 42.429687 0 l 29.839844 29.839844 v -21.210938 l -8.628906 -8.628906 z m -98.160156 7.90625 v 21.214844 l 18.238281 18.238281 h 21.214844 z m 0 0"/>
        </g>
    </g>
</svg>
